<svg width="442" height="137" viewBox="0 0 442 137" fill="none" xmlns="http://www.w3.org/2000/svg">
<path d="M295.257 33.4928V57.025H361.395C373.027 57.025 378.842 53.1029 378.842 45.2589V45.075C378.842 37.3535 373.027 33.4928 361.395 33.4928H295.257ZM295.257 90.1171V136.998H237.641V0.216797H374.785C417.118 0.216797 438.285 11.9216 438.285 35.3312V37.3535C438.285 42.0109 437.271 46.2394 435.242 50.0389C433.213 53.8383 430.508 56.9024 427.127 59.2311C423.881 61.5598 420.635 63.3983 417.389 64.7465C414.278 66.0947 411.1 67.1365 407.854 67.8718C417.456 69.8329 425.03 73.6323 430.576 79.2702C436.121 84.7856 438.894 91.833 438.894 100.412V120.635C438.894 127.744 439.84 132.892 441.734 136.078V136.998H382.9C381.683 135.772 381.074 133.382 381.074 129.828V113.833C381.074 105.744 378.707 99.7996 373.973 96.0002C369.375 92.0781 361.53 90.1171 350.44 90.1171H295.257Z" fill="white"/>
<path d="M137.753 80.741L112.393 33.6766L87.6425 80.741H137.753ZM167.981 136.998L156.215 114.936H69.9922L58.4283 136.998H0L74.6584 0.216797H152.157L231.076 136.998H167.981Z" fill="white"/>
</svg>
