<svg width="136" height="41" viewBox="0 0 136 41" fill="none" xmlns="http://www.w3.org/2000/svg">
<rect x="-0.00390625" y="17.1426" width="112.001" height="23.0005" rx="2.00007" fill="#146EF5"/>
<path d="M10.9362 32.2626C10.3295 32.2626 9.81949 32.1559 9.40614 31.9426C8.99279 31.7292 8.65278 31.4459 8.38611 31.0925L9.10613 30.4025C9.37281 30.7225 9.65615 30.9592 9.95616 31.1125C10.2562 31.2592 10.5962 31.3326 10.9762 31.3326C11.4162 31.3326 11.7529 31.2325 11.9862 31.0325C12.2262 30.8325 12.3462 30.5459 12.3462 30.1725C12.3462 29.8725 12.2596 29.6425 12.0862 29.4825C11.9129 29.3158 11.6162 29.1958 11.1962 29.1225L10.4362 29.0025C10.1028 28.9491 9.82282 28.8625 9.59615 28.7425C9.36947 28.6158 9.18613 28.4691 9.04613 28.3025C8.90612 28.1291 8.80279 27.9391 8.73612 27.7324C8.67612 27.5191 8.64612 27.2958 8.64612 27.0624C8.64612 26.4024 8.85946 25.9024 9.28614 25.5624C9.71282 25.2157 10.2995 25.0423 11.0462 25.0423C11.5995 25.0423 12.0696 25.1323 12.4562 25.3124C12.8496 25.4857 13.1663 25.7324 13.4063 26.0524L12.7063 26.7524C12.5129 26.5191 12.2829 26.3324 12.0162 26.1924C11.7562 26.0457 11.4329 25.9724 11.0462 25.9724C10.6328 25.9724 10.3162 26.0624 10.0962 26.2424C9.88282 26.4157 9.77615 26.6724 9.77615 27.0124C9.77615 27.2991 9.85949 27.5258 10.0262 27.6924C10.1995 27.8524 10.5028 27.9691 10.9362 28.0424L11.6762 28.1724C12.3029 28.2858 12.7596 28.5158 13.0463 28.8625C13.3329 29.2025 13.4763 29.6192 13.4763 30.1125C13.4763 30.4325 13.4196 30.7259 13.3063 30.9925C13.1996 31.2592 13.0363 31.4859 12.8163 31.6726C12.6029 31.8592 12.3362 32.0059 12.0162 32.1126C11.7029 32.2126 11.3429 32.2626 10.9362 32.2626ZM18.6125 32.1426L18.0825 30.2825L15.8624 30.2825L15.3324 32.1426L14.1924 32.1426L16.2325 25.1623L17.7625 25.1623L19.8026 32.1426L18.6125 32.1426ZM17.0125 26.2924L16.9325 26.2924L16.0725 29.3525L17.8725 29.3525L17.0125 26.2924ZM21.9387 32.1426L20.8287 32.1426L20.8287 25.1623L23.4388 25.1623C24.1055 25.1623 24.6122 25.349 24.9588 25.7224C25.3122 26.0957 25.4889 26.6091 25.4889 27.2624C25.4889 27.7958 25.3589 28.2358 25.0988 28.5825C24.8388 28.9291 24.4655 29.1425 23.9788 29.2225L25.5889 32.1426L24.3488 32.1426L22.8688 29.3225L21.9387 29.3225L21.9387 32.1426ZM23.2788 28.4225C23.9721 28.4225 24.3188 28.1058 24.3188 27.4724L24.3188 27.0424C24.3188 26.4091 23.9721 26.0924 23.2788 26.0924L21.9387 26.0924L21.9387 28.4225L23.2788 28.4225ZM30.6051 32.1426L30.0751 30.2825L27.855 30.2825L27.325 32.1426L26.185 32.1426L28.225 25.1623L29.7551 25.1623L31.7952 32.1426L30.6051 32.1426ZM29.0051 26.2924L28.9251 26.2924L28.065 29.3525L29.8651 29.3525L29.0051 26.2924ZM40.9177 32.2626C40.311 32.2626 39.801 32.1559 39.3876 31.9426C38.9743 31.7292 38.6342 31.4459 38.3676 31.0925L39.0876 30.4025C39.3543 30.7225 39.6376 30.9592 39.9376 31.1125C40.2376 31.2592 40.5776 31.3326 40.9577 31.3326C41.3977 31.3326 41.7343 31.2325 41.9677 31.0325C42.2077 30.8325 42.3277 30.5459 42.3277 30.1725C42.3277 29.8725 42.241 29.6425 42.0677 29.4825C41.8944 29.3158 41.5977 29.1958 41.1777 29.1225L40.4176 29.0025C40.0843 28.9491 39.8043 28.8625 39.5776 28.7425C39.3509 28.6158 39.1676 28.4691 39.0276 28.3025C38.8876 28.1291 38.7842 27.9391 38.7176 27.7324C38.6576 27.5191 38.6276 27.2957 38.6276 27.0624C38.6276 26.4024 38.8409 25.9024 39.2676 25.5624C39.6943 25.2157 40.281 25.0423 41.0277 25.0423C41.581 25.0423 42.051 25.1323 42.4377 25.3124C42.8311 25.4857 43.1477 25.7324 43.3877 26.0524L42.6877 26.7524C42.4944 26.5191 42.2644 26.3324 41.9977 26.1924C41.7377 26.0457 41.4143 25.9724 41.0277 25.9724C40.6143 25.9724 40.2976 26.0624 40.0776 26.2424C39.8643 26.4157 39.7576 26.6724 39.7576 27.0124C39.7576 27.2991 39.841 27.5258 40.0076 27.6924C40.181 27.8524 40.4843 27.9691 40.9177 28.0424L41.6577 28.1724C42.2844 28.2858 42.741 28.5158 43.0277 28.8625C43.3144 29.2025 43.4577 29.6192 43.4577 30.1125C43.4577 30.4325 43.4011 30.7259 43.2877 30.9925C43.1811 31.2592 43.0177 31.4859 42.7977 31.6726C42.5844 31.8592 42.3177 32.0059 41.9977 32.1126C41.6843 32.2126 41.3243 32.2626 40.9177 32.2626ZM47.534 26.1024L47.534 32.1426L46.4139 32.1426L46.4139 26.1024L44.2239 26.1024L44.2239 25.1623L49.724 25.1623L49.724 26.1024L47.534 26.1024ZM52.9702 32.2626C52.5302 32.2626 52.1469 32.1826 51.8202 32.0226C51.5002 31.8559 51.2335 31.6192 51.0202 31.3125C50.8135 31.0059 50.6602 30.6292 50.5602 30.1825C50.4602 29.7358 50.4102 29.2258 50.4102 28.6525C50.4102 28.0858 50.4602 27.5791 50.5602 27.1324C50.6602 26.6791 50.8135 26.2991 51.0202 25.9924C51.2335 25.6857 51.5002 25.4524 51.8202 25.2923C52.1469 25.1257 52.5302 25.0423 52.9702 25.0423C53.4103 25.0423 53.7903 25.1257 54.1103 25.2923C54.437 25.4524 54.7036 25.6857 54.9103 25.9924C55.1236 26.2991 55.2803 26.6791 55.3803 27.1324C55.4803 27.5791 55.5303 28.0858 55.5303 28.6525C55.5303 29.2258 55.4803 29.7358 55.3803 30.1825C55.2803 30.6292 55.1236 31.0059 54.9103 31.3125C54.7036 31.6192 54.437 31.8559 54.1103 32.0226C53.7903 32.1826 53.4103 32.2626 52.9702 32.2626ZM52.9702 31.3326C53.4703 31.3326 53.8236 31.1459 54.0303 30.7725C54.237 30.3925 54.3403 29.8792 54.3403 29.2325L54.3403 28.0624C54.3403 27.4224 54.237 26.9157 54.0303 26.5424C53.8236 26.1624 53.4703 25.9724 52.9702 25.9724C52.4702 25.9724 52.1169 26.1624 51.9102 26.5424C51.7035 26.9157 51.6002 27.4224 51.6002 28.0624L51.6002 29.2425C51.6002 29.8825 51.7035 30.3925 51.9102 30.7725C52.1169 31.1459 52.4702 31.3326 52.9702 31.3326ZM60.8966 25.1623L60.8966 30.2725C60.8966 30.5725 60.8433 30.8459 60.7366 31.0925C60.6366 31.3392 60.4899 31.5492 60.2966 31.7226C60.1099 31.8959 59.8832 32.0292 59.6166 32.1226C59.3499 32.2159 59.0532 32.2626 58.7265 32.2626C58.1132 32.2626 57.6232 32.1092 57.2565 31.8026C56.8965 31.4959 56.6631 31.0725 56.5565 30.5325L57.6165 30.3125C57.6765 30.5992 57.7898 30.8392 57.9565 31.0325C58.1232 31.2259 58.3832 31.3226 58.7365 31.3226C59.0632 31.3226 59.3165 31.2259 59.4966 31.0325C59.6832 30.8325 59.7766 30.5292 59.7766 30.1225L59.7766 26.1024L57.3465 26.1024L57.3465 25.1623L60.8966 25.1623ZM66.4129 28.8025L66.4429 26.7024L66.3629 26.7024L64.9628 30.2925L63.5628 26.7024L63.4828 26.7024L63.5128 28.8025L63.5128 32.1426L62.5227 32.1426L62.5227 25.1623L63.8928 25.1623L64.9628 27.9324L65.0328 27.9324L66.1129 25.1623L67.4029 25.1623L67.4029 32.1426L66.4129 32.1426L66.4129 28.8025ZM68.819 32.1426L68.819 25.1623L73.1892 25.1623L73.1892 26.1024L69.9391 26.1024L69.9391 28.1324L73.0692 28.1324L73.0692 29.0725L69.9391 29.0725L69.9391 31.2025L73.1892 31.2025L73.1892 32.1426L68.819 32.1426ZM75.7454 26.7724L75.6554 26.7724L75.6554 32.1426L74.6753 32.1426L74.6753 25.1623L76.1154 25.1623L78.1655 30.5325L78.2555 30.5325L78.2555 25.1623L79.2355 25.1623L79.2355 32.1426L77.7954 32.1426L75.7454 26.7724ZM82.9517 32.2626C82.5117 32.2626 82.1283 32.1826 81.8017 32.0226C81.4817 31.8559 81.215 31.6192 81.0016 31.3125C80.795 31.0059 80.6416 30.6292 80.5416 30.1825C80.4416 29.7358 80.3916 29.2258 80.3916 28.6525C80.3916 28.0858 80.4416 27.5791 80.5416 27.1324C80.6416 26.6791 80.795 26.299 81.0016 25.9924C81.215 25.6857 81.4817 25.4524 81.8017 25.2923C82.1283 25.1257 82.5117 25.0423 82.9517 25.0423C83.3917 25.0423 83.7717 25.1257 84.0917 25.2923C84.4184 25.4524 84.6851 25.6857 84.8918 25.9924C85.1051 26.299 85.2618 26.6791 85.3618 27.1324C85.4618 27.5791 85.5118 28.0858 85.5118 28.6525C85.5118 29.2258 85.4618 29.7358 85.3618 30.1825C85.2618 30.6292 85.1051 31.0059 84.8918 31.3125C84.6851 31.6192 84.4184 31.8559 84.0917 32.0226C83.7717 32.1826 83.3917 32.2626 82.9517 32.2626ZM82.9517 31.3326C83.4517 31.3326 83.8051 31.1459 84.0117 30.7725C84.2184 30.3925 84.3218 29.8792 84.3218 29.2325L84.3218 28.0624C84.3218 27.4224 84.2184 26.9157 84.0117 26.5424C83.8051 26.1624 83.4517 25.9724 82.9517 25.9724C82.4517 25.9724 82.0983 26.1624 81.8917 26.5424C81.685 26.9157 81.5817 27.4224 81.5817 28.0624L81.5817 29.2425C81.5817 29.8825 81.685 30.3925 81.8917 30.7725C82.0983 31.1459 82.4517 31.3326 82.9517 31.3326ZM88.168 32.1426L86.1979 25.1623L87.4079 25.1623L88.328 28.6825L88.938 31.0525L88.998 31.0525L89.608 28.6825L90.5381 25.1623L91.6981 25.1623L89.728 32.1426L88.168 32.1426ZM92.7442 32.1426L92.7442 31.2925L94.3843 31.2925L94.3843 26.0124L92.7442 26.0124L92.7442 25.1623L97.1444 25.1623L97.1444 26.0124L95.5043 26.0124L95.5043 31.2925L97.1444 31.2925L97.1444 32.1426L92.7442 32.1426ZM101.141 32.2626C100.254 32.2626 99.5939 31.9492 99.1605 31.3225C98.7338 30.6959 98.5205 29.8058 98.5205 28.6525C98.5205 27.4991 98.7338 26.6091 99.1605 25.9824C99.5939 25.3557 100.254 25.0423 101.141 25.0423C101.481 25.0423 101.774 25.089 102.021 25.1823C102.274 25.269 102.491 25.3924 102.671 25.5524C102.851 25.7057 103.001 25.889 103.121 26.1024C103.247 26.309 103.351 26.5324 103.431 26.7724L102.421 27.1124C102.367 26.9524 102.307 26.8024 102.241 26.6624C102.174 26.5224 102.091 26.4024 101.991 26.3024C101.891 26.2024 101.771 26.1224 101.631 26.0624C101.497 26.0024 101.331 25.9724 101.131 25.9724C100.637 25.9724 100.277 26.1624 100.051 26.5424C99.8239 26.9157 99.7105 27.4224 99.7105 28.0624L99.7105 29.2425C99.7105 29.8825 99.8239 30.3925 100.051 30.7725C100.277 31.1459 100.637 31.3325 101.131 31.3325C101.331 31.3325 101.497 31.3025 101.631 31.2425C101.771 31.1825 101.891 31.1025 101.991 31.0025C102.091 30.9025 102.174 30.7825 102.241 30.6425C102.307 30.5025 102.367 30.3525 102.421 30.1925L103.431 30.5325C103.351 30.7725 103.247 30.9992 103.121 31.2125C103.001 31.4192 102.851 31.6026 102.671 31.7626C102.491 31.9159 102.274 32.0392 102.021 32.1326C101.774 32.2192 101.481 32.2626 101.141 32.2626Z" fill="black"/>
<path d="M127.174 0.701825C127.956 0.44123 128.699 1.18499 128.439 1.96678L122.832 18.7879C122.541 19.6603 121.326 19.7108 120.964 18.8656L117.915 11.7511C117.814 11.5151 117.626 11.327 117.39 11.2259L110.275 8.17677C109.43 7.81454 109.48 6.59967 110.353 6.30888L127.174 0.701825Z" fill="#146EF5"/>
</svg>
