<svg width="125" height="40" viewBox="0 0 125 40" fill="none" xmlns="http://www.w3.org/2000/svg">
<rect width="100.001" height="23.0005" rx="2.00007" transform="matrix(-1 0 0 1 100.227 0)" fill="#FF4656"/>
<path d="M9.3066 15V8.01977H10.4266V14.06H13.6067V15H9.3066ZM16.0329 8.01977V12.3099C16.0329 12.5966 16.0396 12.8566 16.0529 13.0899C16.0729 13.3233 16.1229 13.5233 16.2029 13.69C16.2829 13.85 16.4029 13.9733 16.5629 14.06C16.7229 14.1466 16.9429 14.19 17.223 14.19C17.503 14.19 17.723 14.1466 17.883 14.06C18.043 13.9733 18.163 13.85 18.243 13.69C18.323 13.5233 18.3697 13.3233 18.383 13.0899C18.403 12.8566 18.413 12.5966 18.413 12.3099V8.01977H19.533V12.1099C19.533 12.6099 19.503 13.0499 19.443 13.4299C19.3897 13.8033 19.2797 14.1166 19.113 14.37C18.9463 14.6167 18.7097 14.8033 18.403 14.93C18.103 15.0567 17.7096 15.12 17.223 15.12C16.7363 15.12 16.3396 15.0567 16.0329 14.93C15.7329 14.8033 15.4996 14.6167 15.3329 14.37C15.1662 14.1166 15.0529 13.8033 14.9929 13.4299C14.9395 13.0499 14.9129 12.6099 14.9129 12.1099V8.01977H16.0329ZM22.9592 11.7899L22.1192 12.8399V15H20.9992V8.01977H22.1192V11.3599H22.1692L23.0192 10.1998L24.7293 8.01977H26.0193L23.7193 10.9599L26.1093 15H24.8293L22.9592 11.7899ZM30.8356 15L30.3056 13.1399H28.0855L27.5555 15H26.4154L28.4555 8.01977H29.9856L32.0256 15H30.8356ZM29.2355 9.14981H29.1555L28.2955 12.2099H30.0956L29.2355 9.14981ZM41.4081 15.12C40.5214 15.12 39.8614 14.8067 39.4281 14.18C39.0014 13.5533 38.788 12.6633 38.788 11.5099C38.788 10.3565 39.0014 9.46648 39.4281 8.8398C39.8614 8.21311 40.5214 7.89976 41.4081 7.89976C41.7481 7.89976 42.0415 7.94643 42.2882 8.03977C42.5415 8.12644 42.7582 8.24978 42.9382 8.40978C43.1182 8.56312 43.2682 8.74646 43.3882 8.9598C43.5149 9.16647 43.6182 9.38981 43.6982 9.62982L42.6882 9.96983C42.6348 9.80983 42.5748 9.65982 42.5082 9.51982C42.4415 9.37981 42.3582 9.25981 42.2582 9.15981C42.1582 9.0598 42.0382 8.9798 41.8981 8.9198C41.7648 8.8598 41.5981 8.82979 41.3981 8.82979C40.9048 8.82979 40.5448 9.0198 40.3181 9.39981C40.0914 9.77316 39.9781 10.2798 39.9781 10.9199V12.0999C39.9781 12.7399 40.0914 13.2499 40.3181 13.63C40.5448 14.0033 40.9048 14.19 41.3981 14.19C41.5981 14.19 41.7648 14.16 41.8981 14.1C42.0382 14.04 42.1582 13.96 42.2582 13.86C42.3582 13.76 42.4415 13.64 42.5082 13.5C42.5748 13.3599 42.6348 13.2099 42.6882 13.0499L43.6982 13.3899C43.6182 13.63 43.5149 13.8566 43.3882 14.07C43.2682 14.2766 43.1182 14.46 42.9382 14.62C42.7582 14.7733 42.5415 14.8967 42.2882 14.99C42.0415 15.0767 41.7481 15.12 41.4081 15.12ZM48.3645 11.9299H46.0444V15H44.9243V8.01977H46.0444V10.9899H48.3645V8.01977H49.4845V15H48.3645V11.9299ZM52.1507 15H51.0406V8.01977H53.6507C54.3174 8.01977 54.8241 8.20644 55.1708 8.57979C55.5241 8.95313 55.7008 9.46648 55.7008 10.1198C55.7008 10.6532 55.5708 11.0932 55.3108 11.4399C55.0508 11.7866 54.6774 11.9999 54.1907 12.0799L55.8008 15H54.5608L53.0807 12.1799H52.1507V15ZM53.4907 11.2799C54.1841 11.2799 54.5308 10.9632 54.5308 10.3298V9.89983C54.5308 9.26648 54.1841 8.9498 53.4907 8.9498H52.1507V11.2799H53.4907ZM56.9969 15V14.15H58.637V8.8698H56.9969V8.01977H61.3971V8.8698H59.757V14.15H61.3971V15H56.9969ZM65.1333 15.12C64.5266 15.12 64.0166 15.0133 63.6032 14.8C63.1899 14.5867 62.8499 14.3033 62.5832 13.95L63.3032 13.2599C63.5699 13.58 63.8533 13.8166 64.1533 13.97C64.4533 14.1166 64.7933 14.19 65.1733 14.19C65.6133 14.19 65.95 14.09 66.1833 13.89C66.4233 13.69 66.5433 13.4033 66.5433 13.0299C66.5433 12.7299 66.4567 12.4999 66.2833 12.3399C66.11 12.1732 65.8133 12.0532 65.3933 11.9799L64.6333 11.8599C64.2999 11.8066 64.0199 11.7199 63.7932 11.5999C63.5666 11.4732 63.3832 11.3265 63.2432 11.1599C63.1032 10.9865 62.9999 10.7965 62.9332 10.5899C62.8732 10.3765 62.8432 10.1532 62.8432 9.91983C62.8432 9.25981 63.0566 8.75979 63.4832 8.41978C63.9099 8.0731 64.4966 7.89976 65.2433 7.89976C65.7966 7.89976 66.2667 7.98977 66.6533 8.16977C67.0467 8.34311 67.3634 8.58979 67.6034 8.9098L66.9034 9.60982C66.71 9.37648 66.48 9.18981 66.2133 9.0498C65.9533 8.90313 65.63 8.82979 65.2433 8.82979C64.8299 8.82979 64.5133 8.9198 64.2933 9.0998C64.0799 9.27314 63.9733 9.52982 63.9733 9.86983C63.9733 10.1565 64.0566 10.3832 64.2233 10.5499C64.3966 10.7099 64.6999 10.8265 65.1333 10.8999L65.8733 11.0299C66.5 11.1432 66.9567 11.3732 67.2434 11.7199C67.53 12.0599 67.6734 12.4766 67.6734 12.9699C67.6734 13.2899 67.6167 13.5833 67.5034 13.85C67.3967 14.1166 67.2334 14.3433 67.0134 14.53C66.8 14.7167 66.5333 14.8633 66.2133 14.97C65.9 15.07 65.54 15.12 65.1333 15.12ZM71.7496 8.9598V15H70.6296V8.9598H68.4395V8.01977H73.9397V8.9598H71.7496ZM74.9858 15V14.15H76.6259V8.8698H74.9858V8.01977H79.386V8.8698H77.7459V14.15H79.386V15H74.9858ZM84.8022 15L84.2722 13.1399H82.0521L81.5221 15H80.3821L82.4221 8.01977H83.9522L85.9923 15H84.8022ZM83.2022 9.14981H83.1222L82.2621 12.2099H84.0622L83.2022 9.14981ZM87.9684 9.62982H87.8784V15H86.8984V8.01977H88.3384L90.3885 13.3899H90.4785V8.01977H91.4585V15H90.0185L87.9684 9.62982Z" fill="black"/>
<path d="M115.4 39.4408C116.182 39.7013 116.926 38.9576 116.665 38.1758L111.058 21.3546C110.768 20.4823 109.553 20.4317 109.19 21.2769L106.141 28.3915C106.04 28.6275 105.852 28.8156 105.616 28.9167L98.5016 31.9658C97.6564 32.328 97.7069 33.5429 98.5793 33.8337L115.4 39.4408Z" fill="#FF4656"/>
</svg>
