<svg width="118" height="41" viewBox="0 0 118 41" fill="none" xmlns="http://www.w3.org/2000/svg">
<rect width="94.0005" height="23.0005" rx="2.00007" transform="matrix(-1 -1.57852e-08 1.92635e-08 1 118.004 17.1426)" fill="#FF4656"/>
<path d="M36.9341 25.1623L36.9341 30.2725C36.9341 30.5725 36.8807 30.8459 36.7741 31.0925C36.6741 31.3392 36.5274 31.5492 36.3341 31.7226C36.1474 31.8959 35.9207 32.0292 35.654 32.1226C35.3874 32.2159 35.0907 32.2626 34.764 32.2626C34.1506 32.2626 33.6606 32.1092 33.2939 31.8026C32.9339 31.4959 32.7006 31.0725 32.5939 30.5325L33.654 30.3125C33.714 30.5992 33.8273 30.8392 33.994 31.0325C34.1606 31.2259 34.4207 31.3226 34.774 31.3226C35.1007 31.3226 35.354 31.2259 35.534 31.0325C35.7207 30.8325 35.814 30.5292 35.814 30.1225L35.814 26.1024L33.384 26.1024L33.384 25.1623L36.9341 25.1623ZM39.8103 25.1623L39.8103 29.4525C39.8103 29.7392 39.8169 29.9992 39.8303 30.2325C39.8503 30.4659 39.9003 30.6659 39.9803 30.8325C40.0603 30.9925 40.1803 31.1159 40.3403 31.2025C40.5003 31.2892 40.7203 31.3326 41.0003 31.3326C41.2803 31.3326 41.5003 31.2892 41.6603 31.2025C41.8203 31.1159 41.9403 30.9925 42.0203 30.8325C42.1003 30.6659 42.147 30.4659 42.1603 30.2325C42.1803 29.9992 42.1903 29.7392 42.1903 29.4525L42.1903 25.1623L43.3104 25.1623L43.3104 29.2525C43.3104 29.7525 43.2804 30.1925 43.2204 30.5725C43.167 30.9459 43.057 31.2592 42.8904 31.5126C42.7237 31.7592 42.487 31.9459 42.1803 32.0726C41.8803 32.1992 41.487 32.2626 41.0003 32.2626C40.5136 32.2626 40.1169 32.1992 39.8103 32.0726C39.5102 31.9459 39.2769 31.7592 39.1102 31.5126C38.9436 31.2592 38.8302 30.9459 38.7702 30.5725C38.7169 30.1925 38.6902 29.7525 38.6902 29.2525L38.6902 25.1623L39.8103 25.1623ZM46.9366 32.2626C46.3299 32.2626 45.8199 32.1559 45.4065 31.9426C44.9932 31.7292 44.6532 31.4459 44.3865 31.0925L45.1065 30.4025C45.3732 30.7225 45.6565 30.9592 45.9566 31.1125C46.2566 31.2592 46.5966 31.3326 46.9766 31.3326C47.4166 31.3326 47.7533 31.2325 47.9866 31.0325C48.2266 30.8325 48.3466 30.5459 48.3466 30.1725C48.3466 29.8725 48.26 29.6425 48.0866 29.4825C47.9133 29.3158 47.6166 29.1958 47.1966 29.1225L46.4366 29.0025C46.1032 28.9491 45.8232 28.8625 45.5965 28.7425C45.3699 28.6158 45.1865 28.4691 45.0465 28.3025C44.9065 28.1291 44.8032 27.9391 44.7365 27.7324C44.6765 27.5191 44.6465 27.2958 44.6465 27.0624C44.6465 26.4024 44.8599 25.9024 45.2865 25.5624C45.7132 25.2157 46.2999 25.0423 47.0466 25.0423C47.5999 25.0423 48.07 25.1323 48.4566 25.3124C48.85 25.4857 49.1667 25.7324 49.4067 26.0524L48.7066 26.7524C48.5133 26.5191 48.2833 26.3324 48.0166 26.1924C47.7566 26.0457 47.4333 25.9724 47.0466 25.9724C46.6332 25.9724 46.3166 26.0624 46.0966 26.2424C45.8832 26.4157 45.7766 26.6724 45.7766 27.0124C45.7766 27.2991 45.8599 27.5258 46.0266 27.6924C46.1999 27.8524 46.5032 27.9691 46.9366 28.0424L47.6766 28.1724C48.3033 28.2858 48.76 28.5158 49.0467 28.8625C49.3333 29.2025 49.4767 29.6192 49.4767 30.1125C49.4767 30.4325 49.42 30.7259 49.3067 30.9925C49.2 31.2592 49.0367 31.4859 48.8167 31.6726C48.6033 31.8592 48.3366 32.0059 48.0166 32.1126C47.7033 32.2126 47.3433 32.2626 46.9366 32.2626ZM53.5529 26.1024L53.5529 32.1426L52.4329 32.1426L52.4329 26.1024L50.2428 26.1024L50.2428 25.1623L55.743 25.1623L55.743 26.1024L53.5529 26.1024ZM56.7891 32.1426L56.7891 31.2925L58.4292 31.2925L58.4292 26.0124L56.7891 26.0124L56.7891 25.1623L61.1892 25.1623L61.1892 26.0124L59.5492 26.0124L59.5492 31.2925L61.1892 31.2925L61.1892 32.1426L56.7891 32.1426ZM63.7754 26.7724L63.6854 26.7724L63.6854 32.1426L62.7054 32.1426L62.7054 25.1623L64.1454 25.1623L66.1955 30.5325L66.2855 30.5325L66.2855 25.1623L67.2655 25.1623L67.2655 32.1426L65.8255 32.1426L63.7754 26.7724ZM76.718 28.9325L75.878 29.9825L75.878 32.1426L74.758 32.1426L74.758 25.1623L75.878 25.1623L75.878 28.5025L75.928 28.5025L76.778 27.3424L78.4881 25.1623L79.7781 25.1623L77.4781 28.1024L79.8682 32.1426L78.5881 32.1426L76.718 28.9325ZM84.5944 32.1426L84.0644 30.2825L81.8443 30.2825L81.3143 32.1426L80.1743 32.1426L82.2143 25.1623L83.7444 25.1623L85.7844 32.1426L84.5944 32.1426ZM82.9943 26.2924L82.9143 26.2924L82.0543 29.3525L83.8544 29.3525L82.9943 26.2924ZM86.7706 32.1426L86.7706 31.2925L88.4106 31.2925L88.4106 26.0124L86.7706 26.0124L86.7706 25.1623L91.1707 25.1623L91.1707 26.0124L89.5307 26.0124L89.5307 31.2925L91.1707 31.2925L91.1707 32.1426L86.7706 32.1426ZM93.9169 32.1426L92.8069 32.1426L92.8069 25.1623L95.4169 25.1623C96.0836 25.1623 96.5903 25.349 96.937 25.7224C97.2903 26.0957 97.467 26.6091 97.467 27.2624C97.467 27.7958 97.337 28.2358 97.077 28.5825C96.817 28.9291 96.4436 29.1425 95.957 29.2225L97.567 32.1426L96.327 32.1426L94.8469 29.3225L93.9169 29.3225L93.9169 32.1426ZM95.2569 28.4225C95.9503 28.4225 96.297 28.1058 96.297 27.4724L96.297 27.0424C96.297 26.4091 95.9503 26.0924 95.2569 26.0924L93.9169 26.0924L93.9169 28.4225L95.2569 28.4225ZM99.7732 25.1623L99.7732 29.4525C99.7732 29.7392 99.7799 29.9992 99.7932 30.2325C99.8132 30.4659 99.8632 30.6659 99.9432 30.8325C100.023 30.9925 100.143 31.1159 100.303 31.2025C100.463 31.2892 100.683 31.3326 100.963 31.3326C101.243 31.3326 101.463 31.2892 101.623 31.2025C101.783 31.1159 101.903 30.9925 101.983 30.8325C102.063 30.6659 102.11 30.4659 102.123 30.2325C102.143 29.9992 102.153 29.7392 102.153 29.4525L102.153 25.1623L103.273 25.1623L103.273 29.2525C103.273 29.7525 103.243 30.1925 103.183 30.5725C103.13 30.9459 103.02 31.2592 102.853 31.5126C102.687 31.7592 102.45 31.9459 102.143 32.0726C101.843 32.1992 101.45 32.2626 100.963 32.2626C100.477 32.2626 100.08 32.1992 99.7732 32.0726C99.4732 31.9459 99.2398 31.7592 99.0732 31.5126C98.9065 31.2592 98.7932 30.9459 98.7332 30.5725C98.6798 30.1925 98.6532 29.7525 98.6532 29.2525L98.6532 25.1623L99.7732 25.1623ZM109.48 32.1426L104.439 32.1426L104.439 31.1525L108.11 26.1024L104.579 26.1024L104.579 25.1623L109.34 25.1623L109.34 26.1524L105.669 31.2025L109.48 31.2025L109.48 32.1426Z" fill="black"/>
<path d="M8.82612 0.701825C8.04434 0.44123 7.30058 1.18499 7.56117 1.96678L13.1682 18.7879C13.459 19.6603 14.6739 19.7108 15.0361 18.8656L18.0852 11.7511C18.1864 11.5151 18.3744 11.327 18.6105 11.2259L25.725 8.17677C26.5702 7.81454 26.5197 6.59967 25.6473 6.30888L8.82612 0.701825Z" fill="#FF4656"/>
</svg>
