<svg width="113" height="40" viewBox="0 0 113 40" fill="none" xmlns="http://www.w3.org/2000/svg">
<rect x="24.1406" width="82.0005" height="23.0005" rx="2.00007" fill="#146EF5"/>
<path d="M36.5908 11.6599L36.6208 9.55982H36.5408L35.1407 13.1499L33.7407 9.55982H33.6607L33.6907 11.6599V15H32.7006V8.01977H34.0707L35.1407 10.7899H35.2107L36.2908 8.01977H37.5808V15H36.5908V11.6599ZM42.7571 15L42.2271 13.1399H40.007L39.477 15H38.3369L40.377 8.01977H41.907L43.9471 15H42.7571ZM41.157 9.14981H41.077L40.217 12.2099H42.017L41.157 9.14981ZM46.0833 15H44.9732V8.01977H47.5833C48.25 8.01977 48.7567 8.20644 49.1034 8.57979C49.4567 8.95313 49.6334 9.46648 49.6334 10.1198C49.6334 10.6532 49.5034 11.0932 49.2434 11.4399C48.9834 11.7866 48.61 11.9999 48.1233 12.0799L49.7334 15H48.4934L47.0133 12.1799H46.0833V15ZM47.4233 11.2799C48.1167 11.2799 48.4634 10.9632 48.4634 10.3298V9.89983C48.4634 9.26648 48.1167 8.9498 47.4233 8.9498H46.0833V11.2799H47.4233ZM52.8696 11.7899L52.0296 12.8399V15H50.9095V8.01977H52.0296V11.3599H52.0796L52.9296 10.1998L54.6397 8.01977H55.9297L53.6296 10.9599L56.0197 15H54.7397L52.8696 11.7899ZM59.1259 15.12C58.6859 15.12 58.3025 15.04 57.9759 14.88C57.6558 14.7133 57.3892 14.4766 57.1758 14.17C56.9692 13.8633 56.8158 13.4866 56.7158 13.0399C56.6158 12.5933 56.5658 12.0832 56.5658 11.5099C56.5658 10.9432 56.6158 10.4365 56.7158 9.98983C56.8158 9.53649 56.9692 9.15647 57.1758 8.8498C57.3892 8.54312 57.6558 8.30978 57.9759 8.14977C58.3025 7.9831 58.6859 7.89976 59.1259 7.89976C59.5659 7.89976 59.9459 7.9831 60.2659 8.14977C60.5926 8.30978 60.8593 8.54312 61.066 8.8498C61.2793 9.15647 61.436 9.53649 61.536 9.98983C61.636 10.4365 61.686 10.9432 61.686 11.5099C61.686 12.0832 61.636 12.5933 61.536 13.0399C61.436 13.4866 61.2793 13.8633 61.066 14.17C60.8593 14.4766 60.5926 14.7133 60.2659 14.88C59.9459 15.04 59.5659 15.12 59.1259 15.12ZM59.1259 14.19C59.6259 14.19 59.9793 14.0033 60.1859 13.63C60.3926 13.2499 60.4959 12.7366 60.4959 12.0899V10.9199C60.4959 10.2798 60.3926 9.77316 60.1859 9.39981C59.9793 9.0198 59.6259 8.82979 59.1259 8.82979C58.6259 8.82979 58.2725 9.0198 58.0659 9.39981C57.8592 9.77316 57.7558 10.2798 57.7558 10.9199V12.0999C57.7558 12.7399 57.8592 13.2499 58.0659 13.63C58.2725 14.0033 58.6259 14.19 59.1259 14.19ZM70.3385 15L68.3684 8.01977H69.5784L70.4985 11.5399L71.1085 13.91H71.1685L71.7785 11.5399L72.7085 8.01977H73.8686L71.8985 15H70.3385ZM75.9247 8.01977V12.3099C75.9247 12.5966 75.9314 12.8566 75.9447 13.0899C75.9647 13.3233 76.0147 13.5233 76.0947 13.69C76.1747 13.85 76.2947 13.9733 76.4548 14.06C76.6148 14.1466 76.8348 14.19 77.1148 14.19C77.3948 14.19 77.6148 14.1466 77.7748 14.06C77.9348 13.9733 78.0548 13.85 78.1348 13.69C78.2148 13.5233 78.2615 13.3233 78.2748 13.0899C78.2948 12.8566 78.3048 12.5966 78.3048 12.3099V8.01977H79.4249V12.1099C79.4249 12.6099 79.3948 13.0499 79.3348 13.4299C79.2815 13.8033 79.1715 14.1166 79.0048 14.37C78.8382 14.6167 78.6015 14.8033 78.2948 14.93C77.9948 15.0567 77.6015 15.12 77.1148 15.12C76.6281 15.12 76.2314 15.0567 75.9247 14.93C75.6247 14.8033 75.3914 14.6167 75.2247 14.37C75.058 14.1166 74.9447 13.8033 74.8847 13.4299C74.8314 13.0499 74.8047 12.6099 74.8047 12.1099V8.01977H75.9247ZM82.8511 11.7899L82.011 12.8399V15H80.891V8.01977H82.011V11.3599H82.061L82.9111 10.1998L84.6211 8.01977H85.9112L83.6111 10.9599L86.0012 15H84.7211L82.8511 11.7899ZM86.9073 15V14.15H88.5473V8.8698H86.9073V8.01977H91.3074V8.8698H89.6674V14.15H91.3074V15H86.9073ZM95.3037 15.12C94.417 15.12 93.7569 14.8067 93.3236 14.18C92.8969 13.5533 92.6836 12.6633 92.6836 11.5099C92.6836 10.3565 92.8969 9.46648 93.3236 8.8398C93.7569 8.21311 94.417 7.89976 95.3037 7.89976C95.6437 7.89976 95.937 7.94643 96.1837 8.03977C96.437 8.12644 96.6537 8.24978 96.8337 8.40978C97.0137 8.56312 97.1637 8.74646 97.2837 8.9598C97.4104 9.16647 97.5137 9.38981 97.5937 9.62982L96.5837 9.96983C96.5304 9.80983 96.4704 9.65982 96.4037 9.51982C96.337 9.37981 96.2537 9.25981 96.1537 9.15981C96.0537 9.0598 95.9337 8.9798 95.7937 8.9198C95.6603 8.8598 95.4937 8.82979 95.2937 8.82979C94.8003 8.82979 94.4403 9.0198 94.2136 9.39981C93.9869 9.77316 93.8736 10.2798 93.8736 10.9199V12.0999C93.8736 12.7399 93.9869 13.2499 94.2136 13.63C94.4403 14.0033 94.8003 14.19 95.2937 14.19C95.4937 14.19 95.6603 14.16 95.7937 14.1C95.9337 14.04 96.0537 13.96 96.1537 13.86C96.2537 13.76 96.337 13.64 96.4037 13.5C96.4704 13.3599 96.5304 13.2099 96.5837 13.0499L97.5937 13.3899C97.5137 13.63 97.4104 13.8566 97.2837 14.07C97.1637 14.2766 97.0137 14.46 96.8337 14.62C96.6537 14.7733 96.437 14.8967 96.1837 14.99C95.937 15.0767 95.6437 15.12 95.3037 15.12Z" fill="black"/>
<path d="M8.96675 39.4408C8.18497 39.7013 7.4412 38.9576 7.7018 38.1758L13.3089 21.3546C13.5996 20.4823 14.8145 20.4317 15.1767 21.2769L18.2258 28.3915C18.327 28.6275 18.5151 28.8156 18.7511 28.9167L25.8656 31.9658C26.7108 32.328 26.6603 33.5429 25.7879 33.8337L8.96675 39.4408Z" fill="#146EF5"/>
</svg>
